<svg xmlns="http://www.w3.org/2000/svg" viewBox="0 0 64 64" width="64" height="64"><defs><linearGradient id="g" x1="0" y1="0" x2="1" y2="1"><stop offset="0" stop-color="#7c3aed"/><stop offset="1" stop-color="#8b5cf6"/></linearGradient></defs><rect x="2" y="2" width="60" height="60" rx="16" fill="url(#g)"/><g transform="translate(14 14) scale(1.5)"><path fill="#ffffff" d="M4 1h16a1 1 0 0 1 1 1v4a1 1 0 0 1-1 1H4a1 1 0 0 1-1-1V2a1 1 0 0 1 1-1m0 8h16a1 1 0 0 1 1 1v4a1 1 0 0 1-1 1H4a1 1 0 0 1-1-1v-4a1 1 0 0 1 1-1m0 8h16a1 1 0 0 1 1 1v4a1 1 0 0 1-1 1H4a1 1 0 0 1-1-1v-4a1 1 0 0 1 1-1M9 5h1V3H9zm0 8h1v-2H9zm0 8h1v-2H9zM5 3v2h2V3zm0 8v2h2v-2zm0 8v2h2v-2z"/></g></svg>